<?xml version="1.0" encoding="UTF-8"?>
<svg version="1.1" xmlns="http://www.w3.org/2000/svg" width="60" height="60">
<path d="M0 0 C1.98677658 1.00165999 3.93345217 2.0845425 5.84765625 3.21875 C6.68753082 3.7127681 6.68753082 3.7127681 7.54437256 4.21676636 C9.38808237 5.30403137 11.22529353 6.40178739 13.0625 7.5 C14.36585901 8.27210401 15.66949331 9.04374349 16.97338867 9.81494141 C26.78211976 15.62850598 36.53050878 21.54184741 46.26391602 27.48046875 C55.13523321 32.88981796 64.05816189 38.20817881 73 43.5 C82.53705321 49.14610245 92.05547923 54.81983397 101.52584839 60.57720947 C103.23390596 61.61521943 104.94324129 62.65112585 106.65258789 63.68701172 C112.06364554 66.97197739 117.45853668 70.27788515 122.82156372 73.64053345 C125.40000744 75.25511923 127.98511109 76.858857 130.57092285 78.46160889 C131.80422927 79.2302981 133.03421471 80.00434435 134.26062012 80.78399658 C135.95580686 81.86136452 137.6632126 82.91943349 139.37109375 83.9765625 C140.33974365 84.58580566 141.30839355 85.19504883 142.30639648 85.82275391 C145.56090559 87.24514518 146.68408415 87.19086504 150 86 C152.23645233 84.83976343 154.35783353 83.65087568 156.50390625 82.34375 C157.13054672 81.96992187 157.75718719 81.59609375 158.40281677 81.2109375 C160.46034275 79.98097557 162.51138677 78.74062135 164.5625 77.5 C166.00811986 76.6328903 167.4540883 75.76636152 168.90039062 74.90039062 C179.09957321 68.78486762 189.26167143 62.6071841 199.41625977 56.41796875 C208.23823757 51.04512951 217.11108626 45.76121736 226 40.5 C235.59655213 34.81944704 245.17081597 29.10604347 254.69723511 23.30853271 C256.41840815 22.2616128 258.14080103 21.21672814 259.86352539 20.17236328 C265.04003268 17.03085666 270.20793369 13.87755948 275.34727478 10.67565918 C277.09382927 9.58969371 278.84411177 8.51003911 280.59594727 7.43261719 C282.77047921 6.09361264 284.93807388 4.7432539 287.09741211 3.37988281 C288.54772827 2.49187988 288.54772827 2.49187988 290.02734375 1.5859375 C291.29179321 0.79775635 291.29179321 0.79775635 292.58178711 -0.00634766 C295.62869789 -1.25833421 296.89679438 -1.04804364 300 0 C301.98677658 1.00165999 303.93345217 2.0845425 305.84765625 3.21875 C306.68753082 3.7127681 306.68753082 3.7127681 307.54437256 4.21676636 C309.38808237 5.30403137 311.22529353 6.40178739 313.0625 7.5 C314.36585901 8.27210401 315.66949331 9.04374349 316.97338867 9.81494141 C326.78211976 15.62850598 336.53050878 21.54184741 346.26391602 27.48046875 C355.13523068 32.88981642 364.05806632 38.20834358 373 43.5 C380.74926483 48.08699577 388.49689991 52.67563524 396.1953125 57.34765625 C397.77376607 58.30264196 397.77376607 58.30264196 399.38410759 59.27692032 C401.70241213 60.6855028 403.9970434 62.1179893 406.28549004 63.57572365 C411.68312646 66.97658997 416.93176148 70.08670423 422.84604013 72.50287449 C443.59462914 80.9863158 443.59462914 80.9863158 447.95105267 89.95878315 C451.83815296 101.42850723 450.56625328 114.47862275 450.04181814 126.37425661 C449.85262276 131.39779456 449.83653546 136.42202761 449.80105591 141.44857788 C449.70826005 150.9409602 449.46281298 160.42282037 449.16057122 169.91059244 C448.82374167 180.72188343 448.659946 191.53371265 448.50970817 202.34895444 C448.19717464 224.5718162 447.6704867 246.7852426 447 269 C447.76187119 269.29490829 448.52374237 269.58981659 449.30870056 269.8936615 C452.55670123 271.22884856 455.50122209 272.95152063 458.50390625 274.75390625 C459.13054672 275.12631943 459.75718719 275.4987326 460.40281677 275.88243103 C462.4582404 277.10547752 464.51041689 278.33385821 466.5625 279.5625 C468.00835135 280.42466734 469.45431648 281.2866439 470.90039062 282.1484375 C480.53161979 287.89497612 490.12624777 293.70050115 499.70266724 299.53787231 C509.09418797 305.26183118 518.53529439 310.89797989 528 316.5 C539.20176163 323.13073564 550.363223 329.82235442 561.47460938 336.60351562 C562.49232422 337.22419922 563.51003906 337.84488281 564.55859375 338.484375 C565.58704407 339.16017609 566.61549438 339.83597717 567.67510986 340.53225708 C571.01814665 342.59231967 574.39532722 343.93315285 578.07501221 345.29208374 C585.52812165 348.37120567 594.30171917 352.06476136 597.84396672 359.85642052 C601.46858031 371.1878146 600.62525495 383.96985203 600.45693231 395.71216726 C600.41503328 399.70356383 600.45302623 403.69261677 600.49098176 407.68392956 C600.58009336 417.11042464 600.54406462 426.530546 600.42407227 435.95654297 C600.30257782 445.6407238 600.37289952 455.30969291 600.54148418 464.99282634 C600.6811869 473.34529205 600.71051124 481.69312807 600.65123624 490.04655278 C600.61639852 495.01915417 600.6191617 499.98362591 600.72457314 504.95541 C601.30470273 535.84156825 601.30470273 535.84156825 594.22048569 543.30315399 C587.83034282 549.00918486 580.15343071 552.48883384 572.27451134 555.64382553 C567.97595297 557.42412021 564.15598984 559.71666632 560.25 562.21875 C559.03143853 562.94545866 557.81047316 563.66816954 556.5859375 564.38476562 C545.34436363 571.01468998 534.14310047 577.70589246 523 584.5 C512.37693323 590.97703557 501.69919612 597.35666136 490.98919678 603.68887329 C483.57187372 608.07477751 476.17244637 612.48594626 468.8203125 616.98046875 C468.16633484 617.37988678 467.51235718 617.77930481 466.83856201 618.19082642 C463.72305968 620.09484232 460.61106539 622.004275 457.50390625 623.921875 C456.41207031 624.59089844 455.32023438 625.25992188 454.1953125 625.94921875 C452.75696045 626.83613403 452.75696045 626.83613403 451.28955078 627.7409668 C449 629 449 629 447 629 C447.0258102 629.91715507 447.05162041 630.83431013 447.07821274 631.77925777 C447.69817308 654.15693667 448.1606555 676.53312575 448.45074081 698.91760159 C448.59478387 709.74354439 448.79087675 720.56373728 449.11230469 731.38598633 C449.39254047 740.82587404 449.57227712 750.26159926 449.63447785 759.7055307 C449.67082373 764.70297711 449.75527004 769.68852512 449.96044159 774.682127 C451.13140436 804.30804928 451.13140436 804.30804928 445.74201393 811.7331624 C439.37933326 818.52978906 430.7979215 822.27117662 422.2886734 825.64879799 C417.97858297 827.41966489 414.15952522 829.7101631 410.25 832.21875 C409.03149434 832.94555223 407.81053583 833.66827665 406.5859375 834.38476562 C395.34436363 841.01468998 384.14310047 847.70589246 373 854.5 C361.71390912 861.38129084 350.36756862 868.1560443 338.98120117 874.87011719 C332.24879891 878.84572675 325.55721773 882.87347378 318.92578125 887.015625 C317.6309747 887.81984716 316.33605496 888.62388712 315.04101562 889.42773438 C312.60622177 890.93943145 310.18416173 892.46917244 307.76757812 894.00976562 C306.14432617 895.01813477 306.14432617 895.01813477 304.48828125 896.046875 C303.54509033 896.64338867 302.60189941 897.23990234 301.63012695 897.85449219 C298.4373055 899.24507218 297.25792422 899.1439943 294 898 C292.01322342 896.99834001 290.06654783 895.9154575 288.15234375 894.78125 C287.59242737 894.4519046 287.03251099 894.1225592 286.45562744 893.78323364 C284.61191763 892.69596863 282.77470647 891.59821261 280.9375 890.5 C279.63414099 889.72789599 278.33050669 888.95625651 277.02661133 888.18505859 C267.21788024 882.37149402 257.46949122 876.45815259 247.73608398 870.51953125 C238.86476679 865.11018204 229.94183811 859.79182119 221 854.5 C211.46294679 848.85389755 201.94452077 843.18016603 192.47415161 837.42279053 C190.76609404 836.38478057 189.05675871 835.34887415 187.34741211 834.31298828 C181.93635446 831.02802261 176.54146332 827.72211485 171.17843628 824.35946655 C168.59999256 822.74488077 166.01488891 821.141143 163.42907715 819.53839111 C162.19577073 818.7697019 160.96578529 817.99565565 159.73937988 817.21600342 C158.04419314 816.13863548 156.3367874 815.08056651 154.62890625 814.0234375 C153.66025635 813.41419434 152.69160645 812.80495117 151.69360352 812.17724609 C148.43909441 810.75485482 147.31591585 810.80913496 144 812 C141.76354767 813.16023657 139.64216647 814.34912432 137.49609375 815.65625 C136.86945328 816.03007813 136.24281281 816.40390625 135.59718323 816.7890625 C133.53965725 818.01902443 131.48861323 819.25937865 129.4375 820.5 C127.99188014 821.3671097 126.5459117 822.23363848 125.09960938 823.09960938 C114.90042679 829.21513238 104.73832857 835.3928159 94.58374023 841.58203125 C85.76176243 846.95487049 76.88891374 852.23878264 68 857.5 C58.40344787 863.18055296 48.82918403 868.89395653 39.30276489 874.69146729 C37.58159185 875.7383872 35.85919897 876.78327186 34.13647461 877.82763672 C28.95996732 880.96914334 23.79206631 884.12244052 18.65272522 887.32434082 C16.90617073 888.41030629 15.15588823 889.48996089 13.40405273 890.56738281 C11.22952079 891.90638736 9.06192612 893.2567461 6.90258789 894.62011719 C5.93571045 895.21211914 4.96883301 895.80412109 3.97265625 896.4140625 C3.12968994 896.9395166 2.28672363 897.4649707 1.41821289 898.00634766 C-1.62869789 899.25833421 -2.89679438 899.04804364 -6 898 C-7.98677658 896.99834001 -9.93345217 895.9154575 -11.84765625 894.78125 C-12.40757263 894.4519046 -12.96748901 894.1225592 -13.54437256 893.78323364 C-15.38808237 892.69596863 -17.22529353 891.59821261 -19.0625 890.5 C-20.36585901 889.72789599 -21.66949331 888.95625651 -22.97338867 888.18505859 C-32.78211976 882.37149402 -42.53050878 876.45815259 -52.26391602 870.51953125 C-61.13523068 865.11018358 -70.05806632 859.79165642 -79 854.5 C-86.74926483 849.91300423 -94.49689991 845.32436476 -102.1953125 840.65234375 C-103.24761488 840.01568661 -104.29991726 839.37902946 -105.38410759 838.72307968 C-107.70241213 837.3144972 -109.9970434 835.8820107 -112.28549004 834.42427635 C-117.68312646 831.02341003 -122.93176148 827.91329577 -128.84604013 825.49712551 C-149.59462914 817.0136842 -149.59462914 817.0136842 -153.95105267 808.04121685 C-157.83815296 796.57149277 -156.56625328 783.52137725 -156.04181814 771.62574339 C-155.85262276 766.60220544 -155.83653546 761.57797239 -155.80105591 756.55142212 C-155.70826005 747.0590398 -155.46281298 737.57717963 -155.16057122 728.08940756 C-154.82374167 717.27811657 -154.659946 706.46628735 -154.50970817 695.65104556 C-154.19717464 673.4281838 -153.6704867 651.2147574 -153 629 C-153.76187119 628.70509171 -154.52374237 628.41018341 -155.30870056 628.1063385 C-158.55670123 626.77115144 -161.50122209 625.04847937 -164.50390625 623.24609375 C-165.13054672 622.87368057 -165.75718719 622.5012674 -166.40281677 622.11756897 C-168.4582404 620.89452248 -170.51041689 619.66614179 -172.5625 618.4375 C-174.00835135 617.57533266 -175.45431648 616.7133561 -176.90039062 615.8515625 C-186.53161979 610.10502388 -196.12624777 604.29949885 -205.70266724 598.46212769 C-215.09418797 592.73816882 -224.53529439 587.10202011 -234 581.5 C-245.20176163 574.86926436 -256.363223 568.17764558 -267.47460938 561.39648438 C-268.49232422 560.77580078 -269.51003906 560.15511719 -270.55859375 559.515625 C-271.58704407 558.83982391 -272.61549438 558.16402283 -273.67510986 557.46774292 C-277.01814665 555.40768033 -280.39532722 554.06684715 -284.07501221 552.70791626 C-291.52812165 549.62879433 -300.30171917 545.93523864 -303.84396672 538.14357948 C-307.46858031 526.8121854 -306.62525495 514.03014797 -306.45693231 502.28783274 C-306.41503328 498.29643617 -306.45302623 494.30738323 -306.49098176 490.31607044 C-306.58009336 480.88957536 -306.54406462 471.469454 -306.42407227 462.04345703 C-306.30257782 452.3592762 -306.37289952 442.69030709 -306.54148418 433.00717366 C-306.6811869 424.65470795 -306.71051124 416.30687193 -306.65123624 407.95344722 C-306.61639852 402.98084583 -306.6191617 398.01637409 -306.72457314 393.04459 C-307.30470273 362.15843175 -307.30470273 362.15843175 -300.22048569 354.69684601 C-293.83034282 348.99081514 -286.15343071 345.51116616 -278.27451134 342.35617447 C-273.97595297 340.57587979 -270.15598984 338.28333368 -266.25 335.78125 C-265.03143853 335.05454134 -263.81047316 334.33183046 -262.5859375 333.61523438 C-251.34436363 326.98531002 -240.14310047 320.29410754 -229 313.5 C-218.37693323 307.02296443 -207.69919612 300.64333864 -196.98919678 294.31112671 C-189.57187372 289.92522249 -182.17244637 285.51405374 -174.8203125 281.01953125 C-174.16633484 280.62011322 -173.51235718 280.22069519 -172.83856201 279.80917358 C-169.72305968 277.90515768 -166.61106539 275.995725 -163.50390625 274.078125 C-162.41207031 273.40910156 -161.32023438 272.74007813 -160.1953125 272.05078125 C-159.23641113 271.45950439 -158.27750977 270.86822754 -157.28955078 270.2590332 C-155 269 -155 269 -153 269 C-153.0258102 268.08284493 -153.05162041 267.16568987 -153.07821274 266.22074223 C-153.69817308 243.84306333 -154.1606555 221.46687425 -154.45074081 199.08239841 C-154.59478387 188.25645561 -154.79087675 177.43626272 -155.11230469 166.61401367 C-155.39254047 157.17412596 -155.57227712 147.73840074 -155.63447785 138.2944693 C-155.67082373 133.29702289 -155.75527004 128.31147488 -155.96044159 123.317873 C-157.13140436 93.69195072 -157.13140436 93.69195072 -151.74201393 86.2668376 C-145.37933326 79.47021094 -136.7979215 75.72882338 -128.2886734 72.35120201 C-123.97858297 70.58033511 -120.15952522 68.2898369 -116.25 65.78125 C-115.03149434 65.05444777 -113.81053583 64.33172335 -112.5859375 63.61523438 C-101.34436363 56.98531002 -90.14310047 50.29410754 -79 43.5 C-67.71390912 36.61870916 -56.36756862 29.8439557 -44.98120117 23.12988281 C-38.24879891 19.15427325 -31.55721773 15.12652622 -24.92578125 10.984375 C-23.6309747 10.18015284 -22.33605496 9.37611288 -21.04101562 8.57226562 C-18.60622177 7.06056855 -16.18416173 5.53082756 -13.76757812 3.99023438 C-12.14432617 2.98186523 -12.14432617 2.98186523 -10.48828125 1.953125 C-9.07349487 1.05835449 -9.07349487 1.05835449 -7.63012695 0.14550781 C-4.4373055 -1.24507218 -3.25792422 -1.1439943 0 0 Z " fill="#5CE3C6" transform="translate(303,1)"/>
<path d="M0 0 C0.83402344 0.47228027 1.66804688 0.94456055 2.52734375 1.43115234 C4.0424353 2.27335327 4.0424353 2.27335327 5.58813477 3.13256836 C6.73805946 3.8129945 7.88563821 4.49739579 9.03125 5.18505859 C9.65789047 5.55747177 10.28453094 5.92988495 10.93016052 6.31358337 C12.98558415 7.53662987 15.03776064 8.76501056 17.08984375 9.99365234 C18.5356951 10.85581968 19.98166023 11.71779624 21.42773438 12.57958984 C31.05896354 18.32612846 40.65359152 24.13165349 50.23001099 29.96902466 C59.62153172 35.69298352 69.06263814 41.32913223 78.52734375 46.93115234 C89.8563985 53.63723748 101.1396626 60.41290579 112.38208008 67.26318359 C118.17443024 70.79139977 123.97366192 74.30699511 129.79296875 77.79052734 C130.37977921 78.1418573 130.96658966 78.49318726 131.57118225 78.85516357 C134.37149359 80.53096354 137.17319336 82.20439856 139.97631836 83.87548828 C140.95608643 84.46104492 141.93585449 85.04660156 142.9453125 85.64990234 C143.80922607 86.16488281 144.67313965 86.67986328 145.56323242 87.21044922 C147.52734375 88.43115234 147.52734375 88.43115234 148.52734375 89.43115234 C148.57507657 91.71045997 148.54941747 93.99129974 148.49714661 96.27050781 C148.48232874 96.99440704 148.46751088 97.71830627 148.45224398 98.46414185 C148.41928587 100.05918639 148.38412179 101.65418644 148.34709358 103.24914169 C148.24487892 107.68327886 148.1605591 112.11776306 148.0749054 116.55224609 C148.05626517 117.50027037 148.03762494 118.44829464 148.01841986 119.42504692 C147.76594839 132.62872197 147.66091801 145.83424296 147.54988575 159.03973389 C147.45513655 169.79557981 147.30861559 180.54623444 147.04272461 191.29931641 C146.81091691 200.68223222 146.67947955 210.06053275 146.66450328 219.44638634 C146.6530418 224.41221867 146.59321793 229.36625346 146.4122715 234.32904053 C144.91796319 253.52531805 144.91796319 253.52531805 150.78976393 271.15804482 C157.16614181 277.93600601 165.7387316 281.68602469 174.24162865 285.07585907 C178.54756861 286.85197516 182.36832116 289.14344492 186.27734375 291.64990234 C187.49587376 292.37666374 188.71683544 293.09938196 189.94140625 293.81591797 C201.75791223 300.78491908 213.52338886 307.83159814 225.23632812 314.97314453 C234.62577443 320.69567481 244.0649192 326.33021992 253.52734375 331.93115234 C264.2056288 338.25312774 274.85519873 344.61956984 285.46484375 351.05615234 C286.07610107 351.42635498 286.6873584 351.79655762 287.31713867 352.17797852 C289.02233818 353.21121479 290.72605438 354.24689789 292.4296875 355.28271484 C293.39382568 355.86875488 294.35796387 356.45479492 295.35131836 357.05859375 C297.52734375 358.43115234 297.52734375 358.43115234 298.52734375 359.43115234 C298.68609194 361.72040233 298.77402968 364.01456138 298.83601379 366.30847168 C298.8669292 367.40044585 298.8669292 367.40044585 298.89846915 368.51448011 C298.96609143 370.97292104 299.02591163 373.43148164 299.08520508 375.89013672 C299.13073041 377.64593134 299.17630968 379.40172456 299.22193909 381.15751648 C299.62658332 397.24647495 299.86696572 413.33814203 300.06021595 429.43088531 C300.193293 440.24784341 300.37865998 451.05877246 300.69458008 461.87207031 C300.9701677 471.3072719 301.14545038 480.73820732 301.20249194 490.17735338 C301.23598359 495.17133328 301.31715087 500.15357262 301.5183506 505.1438446 C302.66433428 534.73867765 302.66433428 534.73867765 297.26843977 542.16339684 C290.90337641 548.95700458 282.32385787 552.69988224 273.81545067 556.07938385 C269.50603162 557.85102238 265.6867552 560.14166909 261.77734375 562.64990234 C260.55883433 563.37669826 259.33787534 564.09942174 258.11328125 564.81591797 C246.87170738 571.44584232 235.67044422 578.1370448 224.52734375 584.93115234 C213.24125287 591.81244318 201.89491237 598.58719664 190.50854492 605.30126953 C183.77614266 609.27687909 177.08456148 613.30462613 170.453125 617.44677734 C169.15831845 618.25099951 167.86339871 619.05503946 166.56835938 619.85888672 C164.13356552 621.37058379 161.71150548 622.90032478 159.29492188 624.44091797 C157.67166992 625.44928711 157.67166992 625.44928711 156.015625 626.47802734 C155.07243408 627.07454102 154.12924316 627.67105469 153.1574707 628.28564453 C149.96464925 629.67622452 148.78526797 629.57514664 145.52734375 628.43115234 C143.54056717 627.42949235 141.59389158 626.34660985 139.6796875 625.21240234 C139.11977112 624.88305695 138.55985474 624.55371155 137.98297119 624.21438599 C136.13926138 623.12712098 134.30205022 622.02936495 132.46484375 620.93115234 C131.16148474 620.15904833 129.85785044 619.38740885 128.55395508 618.61621094 C118.74522399 612.80264637 108.99683497 606.88930493 99.26342773 600.95068359 C90.39211054 595.54133439 81.46918186 590.22297353 72.52734375 584.93115234 C62.99029054 579.28504989 53.47186452 573.61131837 44.00149536 567.85394287 C42.29343779 566.81593291 40.58410246 565.78002649 38.87475586 564.74414062 C33.46369821 561.45917496 28.06880707 558.1532672 22.70578003 554.7906189 C20.12733631 553.17603311 17.54223266 551.57229534 14.9564209 549.96954346 C13.72311448 549.20085424 12.49312904 548.426808 11.26672363 547.64715576 C9.57153689 546.56978782 7.86413115 545.51171885 6.15625 544.45458984 C5.1876001 543.84534668 4.2189502 543.23610352 3.22094727 542.60839844 C-0.03356184 541.18600716 -1.1567404 541.2402873 -4.47265625 542.43115234 C-6.70910858 543.59138892 -8.83048978 544.78027666 -10.9765625 546.08740234 C-11.60320297 546.46123047 -12.22984344 546.83505859 -12.87547302 547.22021484 C-14.932999 548.45017677 -16.98404302 549.690531 -19.03515625 550.93115234 C-20.48077611 551.79826204 -21.92674455 552.66479083 -23.37304688 553.53076172 C-33.57222946 559.64628473 -43.73432768 565.82396824 -53.88891602 572.01318359 C-62.71089382 577.38602284 -71.58374251 582.66993498 -80.47265625 587.93115234 C-90.06920838 593.61170531 -99.64347222 599.32510888 -109.16989136 605.12261963 C-110.8910644 606.16953955 -112.61345728 607.21442421 -114.33618164 608.25878906 C-119.51268893 611.40029569 -124.68058994 614.55359286 -129.81993103 617.75549316 C-131.56648552 618.84145864 -133.31676802 619.92111324 -135.06860352 620.99853516 C-137.24313546 622.3375397 -139.41073013 623.68789844 -141.57006836 625.05126953 C-142.5369458 625.64327148 -143.50382324 626.23527344 -144.5 626.84521484 C-145.34296631 627.37066895 -146.18593262 627.89612305 -147.05444336 628.4375 C-150.10135414 629.68948656 -151.36945063 629.47919598 -154.47265625 628.43115234 C-156.45943283 627.42949235 -158.40610842 626.34660985 -160.3203125 625.21240234 C-160.88022888 624.88305695 -161.44014526 624.55371155 -162.01702881 624.21438599 C-163.86073862 623.12712098 -165.69794978 622.02936495 -167.53515625 620.93115234 C-168.83851526 620.15904833 -170.14214956 619.38740885 -171.44604492 618.61621094 C-181.25477601 612.80264637 -191.00316503 606.88930493 -200.73657227 600.95068359 C-209.60788693 595.54133593 -218.53072257 590.22280876 -227.47265625 584.93115234 C-238.68335506 578.29524182 -249.84775379 571.58932261 -260.97363281 564.81225586 C-270.03513015 559.29500472 -279.12321615 553.82308232 -288.22265625 548.36865234 C-289.22888031 547.76547684 -289.22888031 547.76547684 -290.25543213 547.15011597 C-293.99389063 544.90943176 -297.73298673 542.66981497 -301.47265625 540.43115234 C-298.50846807 537.21421419 -295.50988033 535.09330262 -291.72265625 532.91943359 C-290.88065926 532.43178276 -290.88065926 532.43178276 -290.02165222 531.9342804 C-288.80967192 531.23289634 -287.59612971 530.53420567 -286.38119507 529.83795166 C-283.08723561 527.94929341 -279.80584093 526.03901992 -276.5234375 524.13037109 C-275.84847733 523.73845581 -275.17351715 523.34654053 -274.47810364 522.94274902 C-267.81820757 519.06766108 -261.23503056 515.07365794 -254.66015625 511.05615234 C-244.64128693 504.93953939 -234.57484835 498.90912028 -224.47265625 492.93115234 C-213.18800627 486.25272023 -201.95109821 479.50248324 -190.76074219 472.66723633 C-184.77867766 469.02010945 -178.77531463 465.41936543 -172.7265625 461.88427734 C-172.09356735 461.513405 -171.4605722 461.14253265 -170.80839539 460.76042175 C-167.75984915 458.97459483 -164.7074715 457.19610862 -161.6472168 455.43041992 C-160.57383057 454.80288818 -159.50044434 454.17535645 -158.39453125 453.52880859 C-157.4415918 452.97717041 -156.48865234 452.42553223 -155.50683594 451.85717773 C-154.83555664 451.38658936 -154.16427734 450.91600098 -153.47265625 450.43115234 C-153.47265625 449.77115234 -153.47265625 449.11115234 -153.47265625 448.43115234 C-155.79961589 446.79511335 -155.79961589 446.79511335 -158.83203125 445.11474609 C-159.39902237 444.78681564 -159.96601349 444.45888519 -160.55018616 444.12101746 C-161.78577043 443.40715189 -163.02325451 442.69656714 -164.26235962 441.98883057 C-167.61112331 440.07523642 -170.94537233 438.13662486 -174.28125 436.20068359 C-175.31224068 435.60353546 -175.31224068 435.60353546 -176.36405945 434.99432373 C-183.06184038 431.10740721 -189.67811349 427.09521968 -196.28515625 423.05615234 C-206.30371007 416.93902376 -216.37060506 410.90934296 -226.47265625 404.93115234 C-237.68335506 398.29524182 -248.84775379 391.58932261 -259.97363281 384.81225586 C-269.03513015 379.29500472 -278.12321615 373.82308232 -287.22265625 368.36865234 C-288.22888031 367.76547684 -288.22888031 367.76547684 -289.25543213 367.15011597 C-292.99389063 364.90943176 -296.73298673 362.66981497 -300.47265625 360.43115234 C-299.15229155 356.47005825 -297.60804939 356.06597549 -294.015625 354.01708984 C-293.16726074 353.52731659 -293.16726074 353.52731659 -292.30175781 353.02764893 C-291.07255418 352.31904674 -289.84103228 351.6144545 -288.60751343 350.91339111 C-285.27057493 349.01605676 -281.95105109 347.08860675 -278.62890625 345.16552734 C-277.60255318 344.57301682 -277.60255318 344.57301682 -276.5554657 343.96853638 C-269.86186128 340.09718978 -263.2567027 336.09046679 -256.66015625 332.05615234 C-246.64188348 325.93857155 -236.57469989 319.90933849 -226.47265625 313.93115234 C-216.97156752 308.30720545 -207.49193983 302.65181488 -198.06106567 296.91079712 C-196.36213121 295.87745643 -194.66141906 294.84704032 -192.96069336 293.81665039 C-187.39885419 290.4443045 -181.8522518 287.05147229 -176.3348999 283.60673523 C-173.57805739 281.88952635 -170.81239101 280.18687286 -168.04522705 278.48635864 C-166.71503506 277.66398066 -165.38888941 276.83501809 -164.06707764 275.99923706 C-162.23428098 274.84113199 -160.38887608 273.706343 -158.5390625 272.57568359 C-157.48662354 271.91930908 -156.43418457 271.26293457 -155.34985352 270.58666992 C-152.47265625 269.43115234 -152.47265625 269.43115234 -150 270 C-149.16597656 270.47228027 -148.33195313 270.94456055 -147.47265625 271.43115234 C-146.46259521 271.99261963 -145.45253418 272.55408691 -144.41186523 273.13256836 C-143.26194054 273.8129945 -142.11436179 274.49739579 -140.96875 275.18505859 C-140.34210953 275.55747177 -139.71546906 275.92988495 -139.06983948 276.31358337 C-137.01441585 277.53662987 -134.96223936 278.76501056 -132.91015625 279.99365234 C-131.4643049 280.85581968 -130.01833977 281.71779624 -128.57226562 282.57958984 C-118.94103646 288.32612846 -109.34640848 294.13165349 -99.76998901 299.96902466 C-90.37846828 305.69298352 -80.93736186 311.32913223 -71.47265625 316.93115234 C-60.27089462 323.56188799 -49.10943325 330.25350676 -37.99804688 337.03466797 C-30.18938505 341.79701207 -22.35176163 346.50981652 -14.50756836 351.21337891 C-13.33704343 351.91543862 -12.16652892 352.61751572 -10.99602509 353.3196106 C-8.1550043 355.02362828 -5.31387859 356.72747075 -2.47265625 358.43115234 C-1.8168152 335.38802223 -1.32399723 312.34644166 -1.02191544 289.29585361 C-0.87787833 278.59094302 -0.68179946 267.89184825 -0.36035156 257.19067383 C-0.08009437 247.85626109 0.09962526 238.5260585 0.1618216 229.18755573 C0.19816478 224.24594049 0.28258559 219.31635963 0.48778534 214.3786335 C2.07067233 195.27268526 2.07067233 195.27268526 -3.73064232 177.70869398 C-10.10535621 170.93164992 -18.68473526 167.18275417 -27.18398285 163.78940392 C-31.49005482 162.01095762 -35.31257943 159.71921535 -39.22265625 157.21240234 C-40.44119123 156.48564927 -41.66215374 155.76293264 -42.88671875 155.04638672 C-54.70322473 148.07738561 -66.46870136 141.03070655 -78.18164062 133.88916016 C-88.23554285 127.76166787 -98.34908702 121.73897148 -108.48144531 115.74227905 C-122.54612283 107.41585426 -136.5220727 98.94715132 -150.47265625 90.43115234 C-149.15229155 86.47005825 -147.60804939 86.06597549 -144.015625 84.01708984 C-143.45004883 83.69057434 -142.88447266 83.36405884 -142.30175781 83.02764893 C-141.07255418 82.31904674 -139.84103228 81.6144545 -138.60751343 80.91339111 C-135.27057493 79.01605676 -131.95105109 77.08860675 -128.62890625 75.16552734 C-127.94467087 74.77052032 -127.26043549 74.37551331 -126.5554657 73.96853638 C-119.86186128 70.09718978 -113.2567027 66.09046679 -106.66015625 62.05615234 C-96.64188348 55.93857155 -86.57469989 49.90933849 -76.47265625 43.93115234 C-66.97156752 38.30720545 -57.49193983 32.65181488 -48.06106567 26.91079712 C-46.36213121 25.87745643 -44.66141906 24.84704032 -42.96069336 23.81665039 C-37.39885419 20.4443045 -31.8522518 17.05147229 -26.3348999 13.60673523 C-23.57805739 11.88952635 -20.81239101 10.18687286 -18.04522705 8.48635864 C-16.71503506 7.66398066 -15.38888941 6.83501809 -14.06707764 5.99923706 C-12.23428098 4.84113199 -10.38887608 3.706343 -8.5390625 2.57568359 C-6.96040405 1.59112183 -6.96040405 1.59112183 -5.34985352 0.58666992 C-2.47265625 -0.56884766 -2.47265625 -0.56884766 0 0 Z " fill="#327567" transform="translate(451.47265625,270.56884765625)"/>
<path d="M0 0 C4.11970053 1.64788021 7.73072064 3.48902086 11.50390625 5.75390625 C12.44386696 6.31252602 12.44386696 6.31252602 13.40281677 6.88243103 C15.4582404 8.10547752 17.51041689 9.33385821 19.5625 10.5625 C21.00835135 11.42466734 22.45431648 12.2866439 23.90039062 13.1484375 C33.53161979 18.89497612 43.12624777 24.70050115 52.70266724 30.53787231 C62.09418797 36.26183118 71.53529439 41.89797989 81 47.5 C92.20176163 54.13073564 103.363223 60.82235442 114.47460938 67.60351562 C115.49232422 68.22419922 116.51003906 68.84488281 117.55859375 69.484375 C119.09936584 70.49880928 119.09936584 70.49880928 120.67126465 71.53373718 C124.02582968 73.60172024 127.41176039 74.9294419 131.10961914 76.27876282 C138.54706368 79.32358712 147.41777654 83.00204453 150.80587506 90.87187624 C154.18876225 102.36855554 152.96715016 115.25124595 152.53484845 127.0700748 C152.377514 132.10203007 152.36380269 137.13443713 152.33421326 142.16847229 C152.25679784 151.68064446 152.05210569 161.18555035 151.80047601 170.69453532 C151.52008297 181.52798597 151.38335672 192.36180234 151.25809014 203.19798362 C150.99744348 225.46936396 150.55833698 247.73422277 150 270 C150.76187119 270.29490829 151.52374237 270.58981659 152.30870056 270.8936615 C155.55670123 272.22884856 158.50122209 273.95152063 161.50390625 275.75390625 C162.13054672 276.12631943 162.75718719 276.4987326 163.40281677 276.88243103 C165.4582404 278.10547752 167.51041689 279.33385821 169.5625 280.5625 C171.00835135 281.42466734 172.45431648 282.2866439 173.90039062 283.1484375 C183.53161979 288.89497612 193.12624777 294.70050115 202.70266724 300.53787231 C212.09418797 306.26183118 221.53529439 311.89797989 231 317.5 C242.20176163 324.13073564 253.363223 330.82235442 264.47460938 337.60351562 C265.49232422 338.22419922 266.51003906 338.84488281 267.55859375 339.484375 C269.10126923 340.49807663 269.10126923 340.49807663 270.67510986 341.53225708 C274.01814665 343.59231967 277.39532722 344.93315285 281.07501221 346.29208374 C288.52812165 349.37120567 297.30171917 353.06476136 300.84396672 360.85642052 C304.46858031 372.1878146 303.62525495 384.96985203 303.45693231 396.71216726 C303.41503328 400.70356383 303.45302623 404.69261677 303.49098176 408.68392956 C303.58009336 418.11042464 303.54406462 427.530546 303.42407227 436.95654297 C303.30257782 446.6407238 303.37289952 456.30969291 303.54148418 465.99282634 C303.6811869 474.34529205 303.71051124 482.69312807 303.65123624 491.04655278 C303.61639852 496.01915417 303.6191617 500.98362591 303.72457314 505.95541 C304.30470273 536.84156825 304.30470273 536.84156825 297.22048569 544.30315399 C290.83034282 550.00918486 283.15343071 553.48883384 275.27451134 556.64382553 C270.97595297 558.42412021 267.15598984 560.71666632 263.25 563.21875 C262.03143853 563.94545866 260.81047316 564.66816954 259.5859375 565.38476562 C248.34436363 572.01468998 237.14310047 578.70589246 226 585.5 C214.71390912 592.38129084 203.36756862 599.1560443 191.98120117 605.87011719 C185.24879891 609.84572675 178.55721773 613.87347378 171.92578125 618.015625 C170.6309747 618.81984716 169.33605496 619.62388712 168.04101562 620.42773438 C165.60622177 621.93943145 163.18416173 623.46917244 160.76757812 625.00976562 C159.14432617 626.01813477 159.14432617 626.01813477 157.48828125 627.046875 C156.54509033 627.64338867 155.60189941 628.23990234 154.63012695 628.85449219 C151.4457948 630.24137481 150.24714578 630.14474573 147 629 C144.36987305 627.62744141 144.36987305 627.62744141 141.51171875 625.8515625 C139.8884668 624.85286133 139.8884668 624.85286133 138.23242188 623.83398438 C137.6567749 623.47522217 137.08112793 623.11645996 136.48803711 622.74682617 C133.35956143 620.79762675 130.21565981 618.87351849 127.07421875 616.9453125 C126.41549774 616.54004333 125.75677673 616.13477417 125.07809448 615.71722412 C118.43303668 611.63514663 111.72798937 607.65691874 105.01382446 603.68988037 C93.72715763 597.02108497 82.48548065 590.28466103 71.29302979 583.45901489 C61.86379586 577.71079912 52.38015991 572.05913491 42.875 566.4375 C32.55348611 560.33134123 22.27543247 554.16128137 12.0625 547.875 C10.95438965 547.1936499 9.8462793 546.5122998 8.70458984 545.81030273 C1.13342134 541.13342134 1.13342134 541.13342134 0 540 C-0.03891306 537.72495405 -0.004232 535.44865439 0.05711365 533.17410278 C0.08357384 532.09037063 0.08357384 532.09037063 0.11056858 530.98474491 C0.14967577 529.39275361 0.1909598 527.80081473 0.23408318 526.20892715 C0.35307761 521.78297104 0.45377144 517.35659811 0.55503845 512.9302063 C0.57694933 511.98381735 0.5988602 511.0374284 0.62143505 510.062361 C0.91801034 496.87491303 1.04909976 483.68496242 1.18470669 470.4950428 C1.29998683 459.7540445 1.47437383 449.01994059 1.78637695 438.28271484 C2.05844441 428.91214415 2.21535018 419.54754557 2.23919445 410.172943 C2.25583511 405.21328553 2.32741278 400.26909863 2.53799248 395.31357193 C4.04942671 375.85861592 4.04942671 375.85861592 -2.41356802 358.20221996 C-9.77249358 350.84450841 -19.45637913 346.73464217 -28.92489433 342.80251694 C-35.35721127 340.06932362 -41.12016406 336.24724385 -47 332.5 C-49.28572475 331.09415699 -51.58001267 329.70323071 -53.875 328.3125 C-54.51953125 327.920625 -55.1640625 327.52875 -55.828125 327.125 C-62.85530283 322.86610435 -69.92894222 318.68546874 -77 314.5 C-90.54108591 306.48303121 -104.00920534 298.3539268 -117.44580078 290.16308594 C-121.27075299 287.83336542 -125.10200776 285.51410101 -128.93359375 283.1953125 C-130.88598744 282.01302882 -132.83832265 280.8306486 -134.79064941 279.64825439 C-136.04762127 278.88734921 -137.30486097 278.12688631 -138.56237793 277.36688232 C-140.29627864 276.31880594 -142.02902897 275.26882709 -143.76171875 274.21875 C-145.2461145 273.3205957 -145.2461145 273.3205957 -146.76049805 272.40429688 C-149 271 -149 271 -150 270 C-150.09711942 267.69643567 -150.1218657 265.38982342 -150.12025452 263.08421326 C-150.12110894 262.35240296 -150.12196337 261.62059266 -150.12284368 260.8666063 C-150.12450066 258.39599121 -150.11897359 255.9254429 -150.11352539 253.45483398 C-150.11324354 251.69116213 -150.11340121 249.92749015 -150.1139679 248.16381836 C-150.11425595 243.36030157 -150.10835792 238.55680953 -150.10139394 233.75329852 C-150.09516174 228.73910315 -150.09455671 223.72490727 -150.09336853 218.71070862 C-150.09025482 209.2086324 -150.08204089 199.70656762 -150.07201904 190.20449644 C-150.06085914 179.38968661 -150.05534776 168.57487625 -150.05032361 157.7600621 C-150.03985831 135.50670167 -150.0222581 113.25335155 -150 91 C-146.03494632 92.27990754 -142.62759421 93.6319551 -139.0703125 95.80859375 C-138.12696045 96.38077637 -137.1836084 96.95295898 -136.21166992 97.54248047 C-135.19306885 98.16783691 -134.17446777 98.79319336 -133.125 99.4375 C-131.45860864 100.44943648 -129.79219482 101.46133679 -128.12498474 102.47192383 C-126.94227627 103.18889769 -125.75996244 103.90652288 -124.57801819 104.62475586 C-118.15404921 108.52482171 -111.68547227 112.34876071 -105.21697998 116.17434692 C-93.8644069 122.89060031 -82.55552118 129.67288741 -71.29385376 136.54043579 C-64.5698946 140.63949219 -57.82997296 144.70888902 -51.0546875 148.72265625 C-50.37367981 149.12612274 -49.69267212 149.52958923 -48.99102783 149.94528198 C-45.74244125 151.86854086 -42.49185726 153.78831986 -39.23828125 155.703125 C-26.37959425 163.29834097 -13.72808965 171.16732944 -1 179 C-0.505 90.395 -0.505 90.395 0 0 Z " fill="#C9FEF3" transform="translate(600,0)"/>
<path d="M0 0 C0.83402344 0.47228027 1.66804687 0.94456055 2.52734375 1.43115234 C3.53740479 1.99261963 4.54746582 2.55408691 5.58813477 3.13256836 C6.73805946 3.8129945 7.88563821 4.49739579 9.03125 5.18505859 C9.97121071 5.74367836 9.97121071 5.74367836 10.93016052 6.31358337 C12.98558415 7.53662987 15.03776064 8.76501056 17.08984375 9.99365234 C18.5356951 10.85581968 19.98166023 11.71779624 21.42773438 12.57958984 C31.05896354 18.32612846 40.65359152 24.13165349 50.23001099 29.96902466 C59.62153172 35.69298352 69.06263814 41.32913223 78.52734375 46.93115234 C89.8563985 53.63723748 101.1396626 60.41290579 112.38208008 67.26318359 C118.17443024 70.79139977 123.97366192 74.30699511 129.79296875 77.79052734 C130.37977921 78.1418573 130.96658966 78.49318726 131.57118225 78.85516357 C134.37149359 80.53096354 137.17319336 82.20439856 139.97631836 83.87548828 C140.95608643 84.46104492 141.93585449 85.04660156 142.9453125 85.64990234 C143.80922607 86.16488281 144.67313965 86.67986328 145.56323242 87.21044922 C147.52734375 88.43115234 147.52734375 88.43115234 148.52734375 89.43115234 C148.64428607 91.73343095 148.68933754 94.03935836 148.7081604 96.3445282 C148.71896718 97.44201888 148.71896718 97.44201888 148.72999227 98.56168109 C148.75285093 101.03207184 148.76832815 103.50245241 148.78369141 105.97290039 C148.7981321 107.73669181 148.81288962 109.50048066 148.82794189 111.26426697 C148.9583192 127.37902557 149.02408977 143.49448554 149.07578468 159.60966778 C149.11470863 171.52781627 149.18307456 183.4450207 149.29033244 195.36275452 C149.36315163 203.73560781 149.40161427 212.10820268 149.41481054 220.48135978 C149.42368371 225.48543444 149.44799968 230.4883431 149.50947952 235.49207115 C149.56668247 240.20138501 149.58141178 244.9089306 149.56360626 249.61853981 C149.56448546 251.34637471 149.58077314 253.07428131 149.61365128 254.80180359 C149.84931418 267.86301747 149.84931418 267.86301747 146.57762241 271.74393177 C144.27192984 273.30977305 142.10508532 274.39042734 139.52734375 275.43115234 C138.34313948 276.1287409 137.17021204 276.84602202 136.01245117 277.58666992 C134.89717041 278.24304443 133.78188965 278.89941895 132.6328125 279.57568359 C132.01183182 279.94243698 131.39085114 280.30919037 130.75105286 280.6870575 C129.426671 281.46913751 128.10168255 282.2501911 126.77612305 283.03027344 C123.20391431 285.13306598 119.63694628 287.24470272 116.0703125 289.35693359 C115.34689667 289.78527496 114.62348083 290.21361633 113.87814331 290.65493774 C107.06312236 294.69582963 100.29122408 298.80540518 93.52734375 302.93115234 C83.56956081 309.00349324 73.56423442 314.9905192 63.52734375 320.93115234 C53.2417568 327.01936459 42.98721313 333.15423306 32.77734375 339.36865234 C31.9158522 339.89288284 31.9158522 339.89288284 31.03695679 340.42770386 C28.25871311 342.11840697 25.48066982 343.80943921 22.70263672 345.50048828 C17.75479722 348.50890861 12.80022648 351.50596456 7.83984375 354.49365234 C7.00163086 355.00081787 6.16341797 355.5079834 5.29980469 356.03051758 C4.54602539 356.48370361 3.79224609 356.93688965 3.015625 357.40380859 C2.36118408 357.79834229 1.70674316 358.19287598 1.0324707 358.59936523 C-0.47265625 359.43115234 -0.47265625 359.43115234 -1.47265625 359.43115234 C-1.44167154 358.06315034 -1.44167154 358.06315034 -1.41006088 356.66751194 C-0.9157818 334.41410975 -0.5784971 312.16306846 -0.41306686 289.90470219 C-0.329324 279.13971978 -0.19368545 268.38019409 0.06689453 257.61791992 C0.29405907 248.23018188 0.42103991 238.84715941 0.43085456 229.45658869 C0.43946725 224.48749277 0.4960561 219.53001854 0.67298126 214.56382942 C2.15058567 195.34967985 2.15058567 195.34967985 -3.73599434 177.70334196 C-10.11267368 170.9252297 -18.68393759 167.17502838 -27.18750763 163.78587914 C-31.49342241 162.01020966 -35.31383551 159.71879165 -39.22265625 157.21240234 C-40.44118531 156.48563935 -41.66214683 155.76292083 -42.88671875 155.04638672 C-54.70322473 148.07738561 -66.46870136 141.03070655 -78.18164062 133.88916016 C-88.23554285 127.76166787 -98.34908702 121.73897148 -108.48144531 115.74227905 C-122.54612283 107.41585426 -136.5220727 98.94715132 -150.47265625 90.43115234 C-149.15229155 86.47005825 -147.60804939 86.06597549 -144.015625 84.01708984 C-143.45004883 83.69057434 -142.88447266 83.36405884 -142.30175781 83.02764893 C-141.07255418 82.31904674 -139.84103228 81.6144545 -138.60751343 80.91339111 C-135.27057493 79.01605676 -131.95105109 77.08860675 -128.62890625 75.16552734 C-127.94467087 74.77052032 -127.26043549 74.37551331 -126.5554657 73.96853638 C-119.86186128 70.09718978 -113.2567027 66.09046679 -106.66015625 62.05615234 C-96.64188348 55.93857155 -86.57469989 49.90933849 -76.47265625 43.93115234 C-66.97156752 38.30720545 -57.49193983 32.65181488 -48.06106567 26.91079712 C-46.36213121 25.87745643 -44.66141906 24.84704032 -42.96069336 23.81665039 C-37.39885419 20.4443045 -31.8522518 17.05147229 -26.3348999 13.60673523 C-23.57805739 11.88952635 -20.81239101 10.18687286 -18.04522705 8.48635864 C-16.71503506 7.66398066 -15.38888941 6.83501809 -14.06707764 5.99923706 C-12.23428098 4.84113199 -10.38887608 3.706343 -8.5390625 2.57568359 C-7.48662354 1.91930908 -6.43418457 1.26293457 -5.34985352 0.58666992 C-2.47265625 -0.56884766 -2.47265625 -0.56884766 0 0 Z " fill="#47AE98" transform="translate(451.47265625,270.56884765625)"/>
<path d="M0 0 C4.11970053 1.64788021 7.73072064 3.48902086 11.50390625 5.75390625 C12.13054672 6.12631943 12.75718719 6.4987326 13.40281677 6.88243103 C15.4582404 8.10547752 17.51041689 9.33385821 19.5625 10.5625 C21.00835135 11.42466734 22.45431648 12.2866439 23.90039062 13.1484375 C33.53161979 18.89497612 43.12624777 24.70050115 52.70266724 30.53787231 C62.09419055 36.26183275 71.53539567 41.8978055 81 47.5 C90.63255998 53.20274517 100.24563584 58.93453081 109.81149292 64.74859619 C111.54154226 65.79976617 113.27277314 66.84896825 115.00415039 67.89794922 C120.59151427 71.29017635 126.15312283 74.71652654 131.6796875 78.20703125 C132.73599365 78.86791748 133.7922998 79.52880371 134.88061523 80.2097168 C136.86449701 81.45271277 138.84109195 82.70744457 140.80883789 83.97583008 C141.68531982 84.52263428 142.56180176 85.06943848 143.46484375 85.6328125 C144.60360962 86.35815186 144.60360962 86.35815186 145.76538086 87.09814453 C148.71098074 88.28694011 149.99458768 88.00422843 153 87 C155.23645233 85.83976343 157.35783353 84.65087568 159.50390625 83.34375 C160.13054672 82.96992187 160.75718719 82.59609375 161.40281677 82.2109375 C163.46034275 80.98097557 165.51138677 79.74062135 167.5625 78.5 C169.00811986 77.6328903 170.4540883 76.76636152 171.90039062 75.90039062 C182.09957321 69.78486762 192.26167143 63.6071841 202.41625977 57.41796875 C211.23823757 52.04512951 220.11108626 46.76121736 229 41.5 C239.18098287 35.47350094 249.33155285 29.40154631 259.4375 23.25 C260.57729106 22.5566889 261.71710208 21.86341062 262.85693359 21.17016602 C265.10209161 19.8044291 267.34720913 18.43862561 269.59228516 17.07275391 C270.71683105 16.38874512 271.84137695 15.70473633 273 15 C273.88603912 14.46098053 273.88603912 14.46098053 274.78997803 13.91107178 C278.89761085 11.41315525 283.01033721 8.92381951 287.125 6.4375 C288.19290771 5.78749023 289.26081543 5.13748047 290.36108398 4.46777344 C291.33762939 3.87899414 292.3141748 3.29021484 293.3203125 2.68359375 C294.17898926 2.16337646 295.03766602 1.64315918 295.92236328 1.10717773 C298 0 298 0 300 0 C300 59.4 300 118.8 300 180 C284.21494871 170.97997069 284.21494871 170.97997069 278.6171875 167.66015625 C278.00328156 167.29623276 277.38937561 166.93230927 276.75686646 166.55735779 C274.79541389 165.39379704 272.83511576 164.22831108 270.875 163.0625 C270.18680176 162.65370605 269.49860352 162.24491211 268.78955078 161.82373047 C258.02225517 155.42655942 247.30443876 148.95210409 236.61010742 142.43383789 C225.58118265 135.71846213 214.47758768 129.1304892 203.36566162 122.55363464 C200.24250495 120.70455946 197.12067318 118.85326337 194 117 C193.37895386 116.6311972 192.75790771 116.26239441 192.11804199 115.88241577 C185.84508643 112.15202649 179.59313595 108.39624997 173.42466736 104.49490356 C171.01501643 102.97096227 168.59786908 101.45913868 166.18017578 99.94799805 C164.95500636 99.17733765 163.73375702 98.40041675 162.51611328 97.61791992 C160.71626741 96.46371726 158.90320613 95.33354051 157.0859375 94.20703125 C156.0345459 93.5416333 154.9831543 92.87623535 153.89990234 92.19067383 C151.11021209 90.71667187 151.11021209 90.71667187 148.48510742 91.59228516 C147.66502197 92.05683105 146.84493652 92.52137695 146 93 C145.08081787 93.50088135 144.16163574 94.0017627 143.21459961 94.51782227 C142.20405518 95.11135498 141.19351074 95.7048877 140.15234375 96.31640625 C139.59242737 96.6443367 139.03251099 96.97226715 138.45562744 97.31013489 C136.61401395 98.39049954 134.77565711 99.47626649 132.9375 100.5625 C131.63390729 101.32965246 130.33027709 102.09674122 129.02661133 102.86376953 C119.21022392 108.64990188 109.46330085 114.5460398 99.73608398 120.48071289 C90.86456312 125.88964363 81.94180201 131.20820017 73 136.5 C62.8841075 142.48878545 52.79369179 148.51581832 42.75 154.625 C41.63004639 155.30618896 40.51009277 155.98737793 39.35620117 156.68920898 C34.59668302 159.58685818 29.83924147 162.48790094 25.08251953 165.39013672 C21.79250761 167.39736762 18.50125872 169.4025579 15.20935059 171.40667725 C13.34454922 172.5429712 11.48133462 173.68183543 9.61816406 174.82080078 C7.94512207 175.83956299 7.94512207 175.83956299 6.23828125 176.87890625 C5.24868408 177.4829126 4.25908691 178.08691895 3.23950195 178.70922852 C1 180 1 180 0 180 C0 120.6 0 61.2 0 0 Z " fill="#48AF99" transform="translate(300,0)"/>
<path d="M0 0 C3.70881219 0.83408756 6.46166845 2.28038705 9.75 4.21875 C10.31133133 4.5480954 10.87266266 4.8774408 11.45100403 5.21676636 C13.30376439 6.30601849 15.15194248 7.40279065 17 8.5 C18.30805437 9.27187168 19.61624343 10.04351516 20.92456055 10.81494141 C30.75399153 16.62186264 40.51788885 22.53440133 50.26367188 28.48046875 C59.13519467 33.88961246 68.05810183 39.20814327 77 44.5 C90.54126238 52.51666438 104.00921062 60.64607642 117.44580078 68.83691406 C121.27075299 71.16663458 125.10200776 73.48589899 128.93359375 75.8046875 C130.88598744 76.98697118 132.83832265 78.1693514 134.79064941 79.35174561 C136.04762127 80.11265079 137.30486097 80.87311369 138.56237793 81.63311768 C140.29627864 82.68119406 142.02902897 83.73117291 143.76171875 84.78125 C144.75131592 85.38001953 145.74091309 85.97878906 146.76049805 86.59570312 C149 88 149 88 150 89 C150.0976134 91.32767014 150.12997765 93.62562019 150.12025452 95.95375061 C150.12153615 97.05759138 150.12153615 97.05759138 150.12284368 98.18373197 C150.12450067 100.66816646 150.11897356 103.15253455 150.11352539 105.63696289 C150.11324354 107.41048684 150.11340121 109.18401091 150.1139679 110.95753479 C150.11425595 115.78791017 150.1083579 120.61826094 150.10139394 125.44863057 C150.09516176 130.49085317 150.09455671 135.53307627 150.09336853 140.57530212 C150.09025481 150.13050227 150.08204088 159.68569103 150.07201904 169.24088615 C150.06085916 180.11615433 150.05534777 190.99142305 150.05032361 201.86669552 C150.0398583 224.24447 150.02225807 246.62223436 150 269 C148.2443213 268.04546284 146.48901755 267.09023599 144.73387146 266.13471985 C143.75634635 265.60285222 142.77882124 265.07098459 141.77167416 264.52299976 C138.44410869 262.69454478 135.17442938 260.79479881 131.91015625 258.85546875 C130.98293007 258.30533867 130.98293007 258.30533867 130.03697205 257.74409485 C128.04419001 256.56071978 126.05326261 255.37426864 124.0625 254.1875 C122.64389293 253.34372861 121.2252729 252.49997901 119.80664062 251.65625 C110.27004917 245.97821763 100.77248311 240.23819878 91.29568481 234.46102905 C81.9047014 228.73745507 72.4640572 223.10181904 63 217.5 C49.30049096 209.38977844 35.67068084 201.17103976 22.08056641 192.87890625 C19.15314759 191.09340814 16.22343793 189.31173594 13.29296875 187.53125 C11.63272934 186.52096998 9.97256683 185.51056357 8.3125 184.5 C7.5695166 184.04882812 6.8265332 183.59765625 6.06103516 183.1328125 C1.1149338 180.1149338 1.1149338 180.1149338 0 179 C-0.09711942 176.69643567 -0.1218657 174.38982342 -0.12025452 172.08421326 C-0.12110894 171.35240296 -0.12196337 170.62059266 -0.12284368 169.8666063 C-0.12450066 167.39599121 -0.11897359 164.9254429 -0.11352539 162.45483398 C-0.11324354 160.69116213 -0.11340121 158.92749015 -0.1139679 157.16381836 C-0.11425595 152.36030157 -0.10835792 147.55680953 -0.10139394 142.75329852 C-0.09516174 137.73910315 -0.09455671 132.72490727 -0.09336853 127.71070862 C-0.09025482 118.2086324 -0.08204089 108.70656762 -0.07201904 99.20449644 C-0.06085914 88.38968661 -0.05534776 77.57487625 -0.05032361 66.7600621 C-0.03985831 44.50670167 -0.0222581 22.25335155 0 0 Z " fill="#C9FEF3" transform="translate(300,361)"/>
<path d="M0 0 C0.83402344 0.47228027 1.66804687 0.94456055 2.52734375 1.43115234 C3.53740479 1.99261963 4.54746582 2.55408691 5.58813477 3.13256836 C6.73805946 3.8129945 7.88563821 4.49739579 9.03125 5.18505859 C9.97121071 5.74367836 9.97121071 5.74367836 10.93016052 6.31358337 C12.98558415 7.53662987 15.03776064 8.76501056 17.08984375 9.99365234 C18.5356951 10.85581968 19.98166023 11.71779624 21.42773438 12.57958984 C31.05896354 18.32612846 40.65359152 24.13165349 50.23001099 29.96902466 C59.62153172 35.69298352 69.06263814 41.32913223 78.52734375 46.93115234 C89.85612228 53.63707397 101.14331672 60.40600872 112.37988281 67.26538086 C118.17442009 70.79964655 123.98356323 74.30469685 129.828125 77.75537109 C131.00795031 78.45416906 132.1877202 79.15306059 133.36743164 79.85205078 C135.59606446 81.17005086 137.82819339 82.48216183 140.06420898 83.78759766 C141.04719971 84.36993164 142.03019043 84.95226562 143.04296875 85.55224609 C143.91211914 86.06198975 144.78126953 86.5717334 145.67675781 87.09692383 C146.28745117 87.53721924 146.89814453 87.97751465 147.52734375 88.43115234 C147.52734375 89.09115234 147.52734375 89.75115234 147.52734375 90.43115234 C145.54801363 91.78191141 143.58513386 92.99304141 141.51171875 94.18505859 C140.87800354 94.55747177 140.24428833 94.92988495 139.59136963 95.31358337 C138.21447658 96.12175656 136.83562051 96.92659227 135.45507812 97.72851562 C131.75720867 99.87676221 128.07325654 102.04869517 124.38671875 104.21630859 C123.63547729 104.65701691 122.88423584 105.09772522 122.11022949 105.55178833 C115.2048233 109.60671143 108.36083921 113.75628579 101.52734375 117.93115234 C90.89580549 124.41359371 80.20714218 130.79404913 69.49136353 137.13613892 C60.61025632 142.39392198 51.75799135 147.6948795 42.94464111 153.06549072 C40.10093445 154.7968396 37.25312375 156.52142393 34.40625 158.24755859 C30.22296825 160.7854523 26.05109493 163.34006091 21.8896637 165.91358948 C19.4125501 167.44087693 16.92706085 168.95413525 14.43960571 170.46450806 C13.26087375 171.18446743 12.08577146 171.91040803 10.91464233 172.64266968 C9.29773119 173.65277436 7.6666939 174.64015962 6.03515625 175.62646484 C5.1136377 176.19381348 4.19211914 176.76116211 3.24267578 177.34570312 C-0.22972866 178.73379071 -1.89959643 178.48362429 -5.47265625 177.43115234 C-7.7711815 176.28135937 -9.89478726 175.11415817 -12.07421875 173.77490234 C-12.69944427 173.40107422 -13.3246698 173.02724609 -13.96884155 172.64208984 C-16.01736029 171.4141317 -18.05741276 170.17280251 -20.09765625 168.93115234 C-21.53857891 168.06381198 -22.97999243 167.19728663 -24.421875 166.33154297 C-28.77984646 163.71072603 -33.1269914 161.07230846 -37.47265625 158.43115234 C-38.71314311 157.67842781 -39.95369929 156.92581748 -41.19433594 156.17333984 C-45.76159296 153.40240291 -50.32760472 150.62943584 -54.88916016 147.84912109 C-63.71093132 142.47607484 -72.58380272 137.19233407 -81.47265625 131.93115234 C-92.80088155 125.22555819 -104.08209899 118.44861158 -115.32519531 111.60131836 C-127.00719796 104.48792776 -138.73559074 97.45326212 -150.47265625 90.43115234 C-149.15229155 86.47005825 -147.60804939 86.06597549 -144.015625 84.01708984 C-143.45004883 83.69057434 -142.88447266 83.36405884 -142.30175781 83.02764893 C-141.07255418 82.31904674 -139.84103228 81.6144545 -138.60751343 80.91339111 C-135.27057493 79.01605676 -131.95105109 77.08860675 -128.62890625 75.16552734 C-127.94467087 74.77052032 -127.26043549 74.37551331 -126.5554657 73.96853638 C-119.86186128 70.09718978 -113.2567027 66.09046679 -106.66015625 62.05615234 C-96.64188348 55.93857155 -86.57469989 49.90933849 -76.47265625 43.93115234 C-66.97156752 38.30720545 -57.49193983 32.65181488 -48.06106567 26.91079712 C-46.36213121 25.87745643 -44.66141906 24.84704032 -42.96069336 23.81665039 C-37.39885419 20.4443045 -31.8522518 17.05147229 -26.3348999 13.60673523 C-23.57805739 11.88952635 -20.81239101 10.18687286 -18.04522705 8.48635864 C-16.71503506 7.66398066 -15.38888941 6.83501809 -14.06707764 5.99923706 C-12.23428098 4.84113199 -10.38887608 3.706343 -8.5390625 2.57568359 C-7.48662354 1.91930908 -6.43418457 1.26293457 -5.34985352 0.58666992 C-2.47265625 -0.56884766 -2.47265625 -0.56884766 0 0 Z " fill="#327567" transform="translate(451.47265625,270.56884765625)"/>
<path d="M0 0 C15.78505129 9.02002931 15.78505129 9.02002931 21.3828125 12.33984375 C21.99671844 12.70376724 22.61062439 13.06769073 23.24313354 13.44264221 C25.20458611 14.60620296 27.16488424 15.77168892 29.125 16.9375 C29.81319824 17.34629395 30.50139648 17.75508789 31.21044922 18.17626953 C41.41223784 24.23745603 51.57306425 30.36260672 61.70513916 36.53952026 C71.09585546 42.26290275 80.53632896 47.89817494 90 53.5 C110.14466482 65.42765021 130.20883908 77.49223215 150 90 C147.35593665 93.01127815 144.11582369 94.86133793 140.69140625 96.8515625 C140.06193588 97.22256073 139.43246552 97.59355896 138.78392029 97.97579956 C137.42421312 98.77671799 136.06333365 99.57564888 134.70141602 100.37280273 C131.04662989 102.51244411 127.40070695 104.66709859 123.75390625 106.8203125 C123.01194 107.25792908 122.26997375 107.69554565 121.50552368 108.14642334 C114.63340657 112.2045282 107.81205562 116.34193429 101 120.5 C91.04269292 126.57310932 81.03685452 132.55933337 71 138.5 C60.81901713 144.52649906 50.66844715 150.59845369 40.5625 156.75 C39.42270894 157.4433111 38.28289792 158.13658938 37.14306641 158.82983398 C34.89790839 160.1955709 32.65279087 161.56137439 30.40771484 162.92724609 C29.28316895 163.61125488 28.15862305 164.29526367 27 165 C26.40930725 165.35934631 25.8186145 165.71869263 25.21002197 166.08892822 C21.10238915 168.58684475 16.98966279 171.07618049 12.875 173.5625 C11.80709229 174.21250977 10.73918457 174.86251953 9.63891602 175.53222656 C8.66237061 176.12100586 7.6858252 176.70978516 6.6796875 177.31640625 C5.82101074 177.83662354 4.96233398 178.35684082 4.07763672 178.89282227 C2 180 2 180 0 180 C0 120.6 0 61.2 0 0 Z " fill="#327567" transform="translate(750,450)"/>
<path d="M0 0 C0 59.4 0 118.8 0 180 C-4.11970053 178.35211979 -7.73072064 176.51097914 -11.50390625 174.24609375 C-12.13054672 173.87368057 -12.75718719 173.5012674 -13.40281677 173.11756897 C-15.4582404 171.89452248 -17.51041689 170.66614179 -19.5625 169.4375 C-21.00835135 168.57533266 -22.45431648 167.7133561 -23.90039062 166.8515625 C-33.53161979 161.10502388 -43.12624777 155.29949885 -52.70266724 149.46212769 C-62.09418797 143.73816882 -71.53529439 138.10202011 -81 132.5 C-92.3282253 125.79440585 -103.60944274 119.01745924 -114.85253906 112.17016602 C-126.53454171 105.05677542 -138.26293449 98.02210978 -150 91 C-146.91202894 87.61557995 -143.52800602 85.32291142 -139.59375 83.05078125 C-138.65166687 82.49640633 -138.65166687 82.49640633 -137.69055176 81.93083191 C-136.33722391 81.13519809 -134.9823092 80.34225843 -133.62597656 79.55175781 C-129.98304508 77.42824837 -126.35182813 75.2848391 -122.71875 73.14453125 C-121.97987549 72.71000641 -121.24100098 72.27548157 -120.47973633 71.82778931 C-113.61219817 67.78465378 -106.80142316 63.65330384 -100 59.5 C-90.04297513 53.42643616 -80.03684709 47.44066224 -70 41.5 C-59.81902778 35.47350724 -49.66801043 29.40225191 -39.5625 23.25 C-30.32375299 17.62696493 -21.07915481 12.01441281 -11.8125 6.4375 C-10.19807007 5.46248535 -10.19807007 5.46248535 -8.55102539 4.46777344 C-7.57125732 3.87899414 -6.59148926 3.29021484 -5.58203125 2.68359375 C-4.71811768 2.16337646 -3.8542041 1.64315918 -2.96411133 1.10717773 C-1 0 -1 0 0 0 Z " fill="#327567" transform="translate(150,450)"/>
<path d="M0 0 C4.11970053 1.64788021 7.73072064 3.48902086 11.50390625 5.75390625 C12.13054672 6.12631943 12.75718719 6.4987326 13.40281677 6.88243103 C15.4582404 8.10547752 17.51041689 9.33385821 19.5625 10.5625 C21.00835135 11.42466734 22.45431648 12.2866439 23.90039062 13.1484375 C33.53161979 18.89497612 43.12624777 24.70050115 52.70266724 30.53787231 C62.09418797 36.26183118 71.53529439 41.89797989 81 47.5 C92.3282253 54.20559415 103.60944274 60.98254076 114.85253906 67.82983398 C126.53454171 74.94322458 138.26293449 81.97789022 150 89 C147.03581182 92.21693815 144.03722408 94.33784972 140.25 96.51171875 C139.40800301 96.99936958 139.40800301 96.99936958 138.54899597 97.49687195 C137.33701567 98.198256 136.12347346 98.89694668 134.90853882 99.59320068 C131.61457936 101.48185893 128.33318468 103.39213242 125.05078125 105.30078125 C124.37582108 105.69269653 123.7008609 106.08461182 123.00544739 106.48840332 C116.34555132 110.36349127 109.76237431 114.35749441 103.1875 118.375 C93.16862448 124.49161673 83.10195145 130.52161836 73 136.5 C62.8841075 142.48878545 52.79369179 148.51581832 42.75 154.625 C41.63004639 155.30618896 40.51009277 155.98737793 39.35620117 156.68920898 C34.59668302 159.58685818 29.83924147 162.48790094 25.08251953 165.39013672 C21.79250761 167.39736762 18.50125872 169.4025579 15.20935059 171.40667725 C13.34454922 172.5429712 11.48133462 173.68183543 9.61816406 174.82080078 C7.94512207 175.83956299 7.94512207 175.83956299 6.23828125 176.87890625 C5.24868408 177.4829126 4.25908691 178.08691895 3.23950195 178.70922852 C1 180 1 180 0 180 C0 120.6 0 61.2 0 0 Z " fill="#327567" transform="translate(300,0)"/>
<path d="M0 0 C0 59.4 0 118.8 0 180 C-12.38942635 173.24213108 -12.38942635 173.24213108 -18.08984375 169.85546875 C-18.70799454 169.48871536 -19.32614532 169.12196198 -19.96302795 168.74409485 C-21.95580999 167.56071978 -23.94673739 166.37426864 -25.9375 165.1875 C-27.35610707 164.34372861 -28.7747271 163.49997901 -30.19335938 162.65625 C-39.72995083 156.97821763 -49.22751689 151.23819878 -58.70431519 145.46102905 C-68.0952986 139.73745507 -77.5359428 134.10181904 -87 128.5 C-101.73466117 119.7769599 -116.3850765 110.92208926 -131 102 C-131.97420898 101.40558105 -132.94841797 100.81116211 -133.95214844 100.19873047 C-138.97043429 97.13629386 -143.98657671 94.07039019 -149 91 C-147.6796353 87.0389059 -146.13539314 86.63482314 -142.54296875 84.5859375 C-141.97739258 84.259422 -141.41181641 83.93290649 -140.82910156 83.59649658 C-139.59989793 82.88789439 -138.36837603 82.18330215 -137.13485718 81.48223877 C-133.79791868 79.58490441 -130.47839484 77.6574544 -127.15625 75.734375 C-126.47201462 75.33936798 -125.78777924 74.94436096 -125.08280945 74.53738403 C-118.38920503 70.66603743 -111.78404645 66.65931444 -105.1875 62.625 C-95.16922723 56.50741921 -85.10204364 50.47818615 -75 44.5 C-64.9235087 38.53545704 -54.87614149 32.52759252 -44.875 26.4375 C-35.38075158 20.65806411 -25.87809849 14.89329739 -16.35284424 9.16506958 C-14.99896374 8.35050972 -13.64556511 7.5351484 -12.29266357 6.71896362 C-10.4216525 5.59044081 -8.54896933 4.46474826 -6.67578125 3.33984375 C-5.60239502 2.69394287 -4.52900879 2.04804199 -3.4230957 1.38256836 C-1 0 -1 0 0 0 Z " fill="#47AE98" transform="translate(750,630)"/>
<path d="M0 0 C12.38942635 6.75786892 12.38942635 6.75786892 18.08984375 10.14453125 C18.70799454 10.51128464 19.32614532 10.87803802 19.96302795 11.25590515 C21.95580999 12.43928022 23.94673739 13.62573136 25.9375 14.8125 C27.35610707 15.65627139 28.7747271 16.50002099 30.19335938 17.34375 C39.72995083 23.02178237 49.22751689 28.76180122 58.70431519 34.53897095 C68.0952986 40.26254493 77.5359428 45.89818096 87 51.5 C101.73466117 60.2230401 116.3850765 69.07791074 131 78 C131.97420898 78.59441895 132.94841797 79.18883789 133.95214844 79.80126953 C138.97043429 82.86370614 143.98657671 85.92960981 149 89 C147.6796353 92.9610941 146.13539314 93.36517686 142.54296875 95.4140625 C141.97739258 95.740578 141.41181641 96.06709351 140.82910156 96.40350342 C139.59989793 97.11210561 138.36837603 97.81669785 137.13485718 98.51776123 C133.79791868 100.41509559 130.47839484 102.3425456 127.15625 104.265625 C126.47201462 104.66063202 125.78777924 105.05563904 125.08280945 105.46261597 C118.38920503 109.33396257 111.78404645 113.34068556 105.1875 117.375 C95.16922723 123.49258079 85.10204364 129.52181385 75 135.5 C64.9235087 141.46454296 54.87614149 147.47240748 44.875 153.5625 C35.38075158 159.34193589 25.87809849 165.10670261 16.35284424 170.83493042 C14.99896374 171.64949028 13.64556511 172.4648516 12.29266357 173.28103638 C10.4216525 174.40955919 8.54896933 175.53525174 6.67578125 176.66015625 C5.0657019 177.62900757 5.0657019 177.62900757 3.4230957 178.61743164 C1 180 1 180 0 180 C0 120.6 0 61.2 0 0 Z " fill="#47AE98" transform="translate(150,630)"/>
</svg>
