<svg version="1.1" id="Layer_1" xmlns="http://www.w3.org/2000/svg" xmlns:xlink="http://www.w3.org/1999/xlink" x="0px" y="0px"
	 width="100%" viewBox="0 0 1246 1259" enable-background="new 0 0 1246 1259" xml:space="preserve">
<path fill="#000000" opacity="1.000000" stroke="none"
	d="
M695.000000,1260.000000
	C463.333344,1260.000000 232.166672,1260.000000 1.000000,1260.000000
	C1.000000,840.333313 1.000000,420.666656 1.000000,1.000000
	C416.333344,1.000000 831.666687,1.000000 1247.000000,1.000000
	C1247.000000,420.666656 1247.000000,840.333313 1247.000000,1260.000000
	C1063.166626,1260.000000 879.333313,1260.000000 695.000000,1260.000000
M324.003113,811.031799
	C324.001892,860.994202 323.991547,910.956543 324.007324,960.918945
	C324.010376,970.575073 324.115692,980.231262 324.343018,990.553406
	C325.426849,991.309082 326.469238,992.134033 327.600464,992.810486
	C375.272186,1021.317505 422.980438,1049.763794 470.563507,1078.417847
	C473.602478,1080.247803 475.615631,1079.871094 478.195892,1078.306641
	C490.862671,1070.626343 503.558136,1062.993164 516.249756,1055.353882
	C538.807190,1041.776001 561.359558,1028.189575 583.933044,1014.638428
	C596.067200,1007.354187 608.249939,1000.150696 620.389221,992.874878
	C622.946289,991.342346 624.995178,990.767883 627.962585,992.822021
	C633.638916,996.751526 639.867065,999.876099 645.803650,1003.438721
	C687.637451,1028.544800 729.440002,1053.702881 771.341736,1078.694946
	C772.819275,1079.576294 775.674194,1079.661499 777.136047,1078.817261
	C789.249817,1071.821289 801.186157,1064.518188 813.176575,1057.308472
	C842.513794,1039.668457 871.870544,1022.060791 901.175293,1004.367004
	C908.557983,999.909424 915.774658,995.176941 923.707031,989.908325
	C923.804871,987.753235 923.986328,985.598267 923.988281,983.443115
	C924.041077,925.673401 924.075439,867.903687 924.812744,809.989868
	C930.794373,806.539246 936.829590,803.177856 942.749084,799.623779
	C984.095764,774.799316 1025.431519,749.956665 1066.718262,725.033081
	C1069.354980,723.441345 1071.552734,721.122559 1073.996338,718.187683
	C1073.997681,660.044617 1073.952271,601.901489 1074.121704,543.758911
	C1074.131470,540.441101 1072.952759,538.578491 1070.523071,537.117432
	C1050.512329,525.084656 1030.492676,513.066162 1010.436523,501.109131
	C982.918030,484.703308 955.375488,468.337830 927.811096,452.009308
	C925.087463,450.395905 923.887756,448.572479 923.896790,445.123871
	C924.042969,389.480072 923.906128,333.835358 924.133850,278.192108
	C924.158813,272.088104 922.841919,268.564148 917.083557,265.258698
	C894.040649,252.031494 871.462219,237.995529 848.702332,224.274597
	C831.189209,213.716736 813.696106,203.124710 796.123962,192.665894
	C788.852173,188.337845 781.397095,184.317795 773.302490,180.046967
	C757.280151,189.483109 741.202515,198.826889 725.246887,208.374542
	C691.486877,228.576141 657.790527,248.884155 623.355286,268.997925
	C606.807678,259.105591 590.246582,249.235779 573.715576,239.315735
	C547.850952,223.794693 522.032166,208.197144 496.137756,192.726151
	C488.825317,188.357239 481.316742,184.316605 473.178741,180.026993
	C455.477356,190.500107 437.720123,200.880203 420.086945,211.466934
	C389.373505,229.906799 358.805298,248.590332 327.970520,266.823822
	C324.556183,268.842804 323.948456,270.773651 323.952393,274.139557
	C324.018768,330.789856 323.999847,387.440247 323.999847,444.090637
	C323.999847,445.916321 323.999847,447.742004 323.999847,449.412445
	C300.934814,463.138855 278.047729,476.655396 255.264908,490.345428
	C229.556305,505.793518 204.024460,521.538452 178.188751,536.769226
	C174.659790,538.849609 173.936142,540.850952 173.943436,544.412109
	C174.030777,587.066345 173.984650,629.720764 174.007751,672.375183
	C174.016327,688.200684 174.114731,704.026245 174.325638,720.526062
	C185.880936,727.515564 197.424088,734.525330 208.994064,741.490479
	C233.265533,756.102051 257.527222,770.730103 281.840088,785.272522
	C295.816498,793.632324 309.885193,801.837769 324.003113,811.031799
z"/>
<path fill="#327567" opacity="1.000000" stroke="none"
	d="
M923.067627,990.570801
	C915.774658,995.176941 908.557983,999.909424 901.175293,1004.367004
	C871.870544,1022.060791 842.513794,1039.668457 813.176575,1057.308472
	C801.186157,1064.518188 789.249817,1071.821289 777.136047,1078.817261
	C775.674194,1079.661499 772.819275,1079.576294 771.341736,1078.694946
	C729.440002,1053.702881 687.637451,1028.544800 645.803650,1003.438721
	C639.867065,999.876099 633.638916,996.751526 627.962585,992.822021
	C624.995178,990.767883 622.946289,991.342346 620.389221,992.874878
	C608.249939,1000.150696 596.067200,1007.354187 583.933044,1014.638428
	C561.359558,1028.189575 538.807190,1041.776001 516.249756,1055.353882
	C503.558136,1062.993164 490.862671,1070.626343 478.195892,1078.306641
	C475.615631,1079.871094 473.602478,1080.247803 470.563507,1078.417847
	C422.980438,1049.763794 375.272186,1021.317505 327.600464,992.810486
	C326.469238,992.134033 325.426849,991.309082 324.549133,990.065063
	C374.153534,959.940369 423.551819,930.303955 473.824738,900.142761
	C470.953735,898.272827 469.340637,897.147095 467.658020,896.137268
	C421.998749,868.734680 376.324158,841.357727 330.694244,813.906311
	C328.653320,812.678467 327.008026,810.792969 325.488770,809.061523
	C375.193939,779.268982 424.588776,749.628784 474.274414,720.175110
	C495.379669,732.913635 516.173279,745.500305 537.013672,758.009094
	C564.704041,774.629456 592.425232,791.198425 620.161377,807.742188
	C621.343628,808.447388 622.808838,808.678040 624.492432,809.069214
	C626.753357,808.008240 628.719543,807.100708 630.566467,805.993958
	C678.381653,777.341370 726.184448,748.668152 774.280762,720.182739
	C796.016174,733.224365 817.463013,746.077271 838.903748,758.940247
	C866.936157,775.757812 894.963867,792.583374 922.848999,809.687378
	C920.992188,811.249207 919.376770,812.690125 917.553711,813.785461
	C872.150635,841.065552 826.723267,868.305298 781.312012,895.571899
	C779.248901,896.810669 777.295898,898.232727 774.552002,900.062744
	C777.077820,901.716675 778.796692,902.928101 780.594971,904.007202
	C826.297058,931.430786 872.013611,958.830444 917.695862,986.287109
	C919.641663,987.456726 921.283936,989.131409 923.067627,990.570801
z"/>
<path fill="#5DE4C7" opacity="1.000000" stroke="none"
	d="
M473.983612,719.988586
	C424.588776,749.628784 375.193939,779.268982 325.210083,809.002075
	C324.437531,809.045776 324.254028,808.996582 324.046814,808.482544
	C324.023041,749.014465 324.023041,690.011108 324.023041,630.024475
	C273.287872,660.437378 223.730026,690.144592 174.172180,719.851746
	C174.114731,704.026245 174.016327,688.200684 174.007751,672.375183
	C173.984650,629.720764 174.030777,587.066345 173.943436,544.412109
	C173.936142,540.850952 174.659790,538.849609 178.188751,536.769226
	C204.024460,521.538452 229.556305,505.793518 255.264908,490.345428
	C278.047729,476.655396 300.934814,463.138855 323.999847,449.412445
	C323.999847,447.742004 323.999847,445.916321 323.999847,444.090637
	C323.999847,387.440247 324.018768,330.789856 323.952393,274.139557
	C323.948456,270.773651 324.556183,268.842804 327.970520,266.823822
	C358.805298,248.590332 389.373505,229.906799 420.086945,211.466934
	C437.720123,200.880203 455.477356,190.500107 473.573608,180.535736
	C473.968506,240.348541 473.968506,299.652618 473.968506,359.986206
	C484.770966,353.522919 494.462494,347.746826 504.132355,341.934784
	C544.070007,317.930481 584.001038,293.915253 624.095703,269.981628
	C624.492493,270.129791 624.673035,270.270630 624.580078,270.872620
	C624.240906,273.582642 624.016174,275.901764 624.015137,278.220947
	C623.990723,335.476593 623.989990,392.732239 623.683960,450.150482
	C575.341675,479.163269 527.296082,508.005951 479.278778,536.895630
	C477.635590,537.884277 476.276031,539.344421 474.564850,540.967773
	C474.229828,543.669434 474.014160,545.988037 474.013214,548.306824
	C473.989532,605.534058 473.988586,662.761353 473.983612,719.988586
z"/>
<path fill="#CAFFF4" opacity="1.000000" stroke="none"
	d="
M623.985046,449.987885
	C623.989990,392.732239 623.990723,335.476593 624.015137,278.220947
	C624.016174,275.901764 624.240906,273.582642 624.914246,271.078461
	C674.622681,300.376892 723.778381,329.860352 774.025391,359.998383
	C774.025391,299.191925 774.025391,239.674789 774.025391,180.157654
	C781.397095,184.317795 788.852173,188.337845 796.123962,192.665894
	C813.696106,203.124710 831.189209,213.716736 848.702332,224.274597
	C871.462219,237.995529 894.040649,252.031494 917.083557,265.258698
	C922.841919,268.564148 924.158813,272.088104 924.133850,278.192108
	C923.906128,333.835358 924.042969,389.480072 923.896790,445.123871
	C923.887756,448.572479 925.087463,450.395905 927.811096,452.009308
	C955.375488,468.337830 982.918030,484.703308 1010.436523,501.109131
	C1030.492676,513.066162 1050.512329,525.084656 1070.523071,537.117432
	C1072.952759,538.578491 1074.131470,540.441101 1074.121704,543.758911
	C1073.952271,601.901489 1073.997681,660.044617 1073.615723,718.735840
	C1066.231934,715.167358 1059.198120,711.102295 1052.231079,706.925537
	C1011.038574,682.230591 969.863037,657.507507 928.673401,632.807861
	C927.348511,632.013367 925.934265,631.367737 923.928955,630.323120
	C923.928955,690.577454 923.928955,749.861084 923.701172,809.231445
	C923.473328,809.318237 922.993591,809.405457 922.993591,809.405457
	C894.963867,792.583374 866.936157,775.757812 838.903748,758.940247
	C817.463013,746.077271 796.016174,733.224365 774.284607,719.714478
	C773.997986,661.246277 774.005371,603.430725 773.971008,545.615112
	C773.969849,543.676575 773.546143,541.738281 773.065430,539.551758
	C746.504517,523.512146 720.198792,507.718628 693.890320,491.929840
	C670.590210,477.946442 647.286926,463.968353 623.985046,449.987885
z"/>
<path fill="#48AF99" opacity="1.000000" stroke="none"
	d="
M773.663940,180.102310
	C774.025391,239.674789 774.025391,299.191925 774.025391,359.998383
	C723.778381,329.860352 674.622681,300.376892 625.132874,270.687592
	C624.673035,270.270630 624.492493,270.129791 624.125854,269.792236
	C623.994690,269.525238 624.067993,269.148499 624.067993,269.148499
	C657.790527,248.884155 691.486877,228.576141 725.246887,208.374542
	C741.202515,198.826889 757.280151,189.483109 773.663940,180.102310
z"/>
<path fill="#327567" opacity="1.000000" stroke="none"
	d="
M923.928955,809.144653
	C923.928955,749.861084 923.928955,690.577454 923.928955,630.323120
	C925.934265,631.367737 927.348511,632.013367 928.673401,632.807861
	C969.863037,657.507507 1011.038574,682.230591 1052.231079,706.925537
	C1059.198120,711.102295 1066.231934,715.167358 1073.594849,719.213013
	C1071.552734,721.122559 1069.354980,723.441345 1066.718262,725.033081
	C1025.431519,749.956665 984.095764,774.799316 942.749084,799.623779
	C936.829590,803.177856 930.794373,806.539246 924.430664,809.812012
	C924.008789,809.471008 923.968872,809.307800 923.928955,809.144653
z"/>
<path fill="#327567" opacity="1.000000" stroke="none"
	d="
M623.711670,269.073212
	C624.067993,269.148499 623.994690,269.525238 623.964600,269.714661
	C584.001038,293.915253 544.070007,317.930481 504.132355,341.934784
	C494.462494,347.746826 484.770966,353.522919 473.968506,359.986206
	C473.968506,299.652618 473.968506,240.348541 473.933319,180.584930
	C481.316742,184.316605 488.825317,188.357239 496.137756,192.726151
	C522.032166,208.197144 547.850952,223.794693 573.715576,239.315735
	C590.246582,249.235779 606.807678,259.105591 623.711670,269.073212
z"/>
<path fill="#327567" opacity="1.000000" stroke="none"
	d="
M174.248901,720.188904
	C223.730026,690.144592 273.287872,660.437378 324.023041,630.024475
	C324.023041,690.011108 324.023041,749.014465 323.994354,808.772156
	C323.947906,809.721924 323.930145,809.917358 323.912354,810.112732
	C309.885193,801.837769 295.816498,793.632324 281.840088,785.272522
	C257.527222,770.730103 233.265533,756.102051 208.994064,741.490479
	C197.424088,734.525330 185.880936,727.515564 174.248901,720.188904
z"/>
<path fill="#48AF99" opacity="1.000000" stroke="none"
	d="
M323.957733,810.572266
	C323.930145,809.917358 323.947906,809.721924 324.018127,809.236938
	C324.254028,808.996582 324.437531,809.045776 324.899750,809.154358
	C327.008026,810.792969 328.653320,812.678467 330.694244,813.906311
	C376.324158,841.357727 421.998749,868.734680 467.658020,896.137268
	C469.340637,897.147095 470.953735,898.272827 473.824738,900.142761
	C423.551819,930.303955 374.153534,959.940369 324.464539,989.732056
	C324.115692,980.231262 324.010376,970.575073 324.007324,960.918945
	C323.991547,910.956543 324.001892,860.994202 323.957733,810.572266
z"/>
<path fill="#48AF99" opacity="1.000000" stroke="none"
	d="
M923.701172,809.231445
	C923.968872,809.307800 924.008789,809.471008 924.080811,809.884033
	C924.075439,867.903687 924.041077,925.673401 923.988281,983.443115
	C923.986328,985.598267 923.804871,987.753235 923.387329,990.239563
	C921.283936,989.131409 919.641663,987.456726 917.695862,986.287109
	C872.013611,958.830444 826.297058,931.430786 780.594971,904.007202
	C778.796692,902.928101 777.077820,901.716675 774.552002,900.062744
	C777.295898,898.232727 779.248901,896.810669 781.312012,895.571899
	C826.723267,868.305298 872.150635,841.065552 917.553711,813.785461
	C919.376770,812.690125 920.992188,811.249207 922.848999,809.687378
	C922.993591,809.405457 923.473328,809.318237 923.701172,809.231445
z"/>
<path fill="#CAFFF4" opacity="1.000000" stroke="none"
	d="
M474.274414,720.175110
	C473.988586,662.761353 473.989532,605.534058 474.013214,548.306824
	C474.014160,545.988037 474.229828,543.669434 474.916809,541.139587
	C524.995789,570.619690 574.503418,600.310974 624.007324,630.470703
	C624.002930,662.552063 623.983582,694.164856 624.006775,725.777710
	C624.027161,753.561707 624.095215,781.345764 624.142212,809.129761
	C622.808838,808.678040 621.343628,808.447388 620.161377,807.742188
	C592.425232,791.198425 564.704041,774.629456 537.013672,758.009094
	C516.173279,745.500305 495.379669,732.913635 474.274414,720.175110
z"/>
<path fill="#48AF99" opacity="1.000000" stroke="none"
	d="
M624.492432,809.069214
	C624.095215,781.345764 624.027161,753.561707 624.006775,725.777710
	C623.983582,694.164856 624.002930,662.552063 624.308472,630.307861
	C663.875549,606.121582 703.157959,582.599915 742.386963,558.989502
	C752.782104,552.733032 763.013062,546.203857 773.319397,539.799866
	C773.546143,541.738281 773.969849,543.676575 773.971008,545.615112
	C774.005371,603.430725 773.997986,661.246277 773.993286,719.530151
	C726.184448,748.668152 678.381653,777.341370 630.566467,805.993958
	C628.719543,807.100708 626.753357,808.008240 624.492432,809.069214
z"/>
<path fill="#327567" opacity="1.000000" stroke="none"
	d="
M773.065430,539.551758
	C763.013062,546.203857 752.782104,552.733032 742.386963,558.989502
	C703.157959,582.599915 663.875549,606.121582 624.312073,629.839355
	C574.503418,600.310974 524.995789,570.619690 475.136230,540.756592
	C476.276031,539.344421 477.635590,537.884277 479.278778,536.895630
	C527.296082,508.005951 575.341675,479.163269 623.683960,450.150482
	C647.286926,463.968353 670.590210,477.946442 693.890320,491.929840
	C720.198792,507.718628 746.504517,523.512146 773.065430,539.551758
z"/>
</svg>
